<?xml version="1.0" encoding="UTF-8"?>
<svg width="90px" height="91px" viewBox="0 0 90 91" version="1.1" xmlns="http://www.w3.org/2000/svg" xmlns:xlink="http://www.w3.org/1999/xlink">
    <!-- Generator: Sketch 60.1 (88133) - https://sketch.com -->
    <title>github_hover</title>
    <desc>Created with Sketch.</desc>
    <g id="Welcome" stroke="none" stroke-width="1" fill="none" fill-rule="evenodd">
        <g id="Desktop-HD" transform="translate(-1276.000000, -563.000000)">
            <g id="social_media_row" transform="translate(1229.000000, 111.500000)">
                <g id="social_media_icons" transform="translate(47.000000, 451.500000)">
                    <g id="github_hover">
                        <rect id="Rectangle" x="0" y="0" width="90" height="91"></rect>
                        <ellipse id="Oval" stroke="#730D0D" stroke-width="2" cx="45" cy="45.5" rx="44" ry="44.5"></ellipse>
                        <path d="M20.4545455,46.1296245 C20.4545455,57.371025 27.486906,66.9096564 37.2405956,70.2745782 C38.4686594,70.5089042 38.9161869,69.7231309 38.9161869,69.048272 C38.9161869,68.4437108 38.8950914,66.8440452 38.8830368,64.7210514 C32.0556047,66.2582301 30.6150783,61.3092644 30.6150783,61.3092644 C29.4985197,58.3692539 27.8892287,57.586605 27.8892287,57.586605 C25.6606319,56.0072476 28.0579933,56.0400532 28.0579933,56.0400532 C30.5216551,56.2197032 31.8175261,58.6629425 31.8175261,58.6629425 C34.0084522,62.5511924 37.5630565,61.4279896 38.9613917,60.7765633 C39.1844021,59.1315946 39.8187762,58.0115162 40.5194506,57.3741494 C35.0692582,56.7320961 29.338796,54.5497397 29.338796,44.7986527 C29.338796,42.019546 30.295631,39.7481458 31.8657445,37.9688301 C31.6141045,37.3252147 30.7717883,34.7382553 32.1068368,31.2358624 C32.1068368,31.2358624 34.1681758,30.5500682 38.8559139,33.8431299 C40.8147887,33.2791853 42.9137983,32.9964319 45.0007534,32.9870589 C47.0862017,32.9964319 49.1852113,33.2791853 51.1470998,33.8431299 C55.8318242,30.5500682 57.8901495,31.2358624 57.8901495,31.2358624 C59.2282117,34.7382553 58.3858955,37.3252147 58.1342555,37.9688301 C59.7073826,39.7481458 60.6566835,42.019546 60.6566835,44.7986527 C60.6566835,54.5731723 54.9186872,56.7242852 49.4504128,57.3554033 C50.3319065,58.1411766 51.1154564,59.693977 51.1154564,62.0669186 C51.1154564,65.4693325 51.0868267,68.2140713 51.0868267,69.048272 C51.0868267,69.7293796 51.5283269,70.5198394 52.7744727,70.2714538 C62.5191214,66.9002834 69.5454545,57.3694629 69.5454545,46.1296245 C69.5454545,32.0747495 58.5546601,20.6818182 44.9977398,20.6818182 C31.4453399,20.6818182 20.4545455,32.0747495 20.4545455,46.1296245 Z" id="Shape" fill="#FFFFFF"></path>
                    </g>
                </g>
            </g>
        </g>
    </g>
</svg>