<?xml version="1.0" encoding="UTF-8"?>
<svg width="90px" height="90px" viewBox="0 0 90 90" version="1.1" xmlns="http://www.w3.org/2000/svg" xmlns:xlink="http://www.w3.org/1999/xlink">
    <!-- Generator: Sketch 60.1 (88133) - https://sketch.com -->
    <title>github</title>
    <desc>Created with Sketch.</desc>
    <g id="Welcome" stroke="none" stroke-width="1" fill="none" fill-rule="evenodd">
        <g id="Desktop-HD" transform="translate(-1276.000000, -563.000000)">
            <g id="social_media_row" transform="translate(1229.000000, 52.500000)">
                <g id="social_media_icons" transform="translate(47.000000, 510.500000)">
                    <g id="github">
                        <rect id="Rectangle" x="0" y="0" width="90" height="90"></rect>
                        <circle id="Oval" stroke="#730D0D" stroke-width="2" cx="45" cy="45" r="44"></circle>
                        <path d="M20.4545455,45.6227056 C20.4545455,56.7405742 27.486906,66.1743855 37.2405956,69.5023301 C38.4686594,69.7340811 38.9161869,68.9569427 38.9161869,68.2894997 C38.9161869,67.6915821 38.8950914,66.1094952 38.8830368,64.009831 C32.0556047,65.5301177 30.6150783,60.6355363 30.6150783,60.6355363 C29.4985197,57.7278335 27.8892287,56.9537851 27.8892287,56.9537851 C25.6606319,55.3917833 28.0579933,55.4242285 28.0579933,55.4242285 C30.5216551,55.6019042 31.8175261,58.0182948 31.8175261,58.0182948 C34.0084522,61.8638166 37.5630565,60.7529568 38.9613917,60.108689 C39.1844021,58.4817968 39.8187762,57.374027 40.5194506,56.7436642 C35.0692582,56.1086664 29.338796,53.950292 29.338796,44.3063598 C29.338796,41.5577928 30.295631,39.311353 31.8657445,37.5515903 C31.6141045,36.9150475 30.7717883,34.3565163 32.1068368,30.8926111 C32.1068368,30.8926111 34.1681758,30.2143532 38.8559139,33.4712274 C40.8147887,32.91348 42.9137983,32.6338337 45.0007534,32.6245637 C47.0862017,32.6338337 49.1852113,32.91348 51.1470998,33.4712274 C55.8318242,30.2143532 57.8901495,30.8926111 57.8901495,30.8926111 C59.2282117,34.3565163 58.3858955,36.9150475 58.1342555,37.5515903 C59.7073826,39.311353 60.6566835,41.5577928 60.6566835,44.3063598 C60.6566835,53.9734671 54.9186872,56.1009414 49.4504128,56.7251241 C50.3319065,57.5022625 51.1154564,59.0379993 51.1154564,61.3848645 C51.1154564,64.7498893 51.0868267,67.4644661 51.0868267,68.2894997 C51.0868267,68.9631227 51.5283269,69.7448961 52.7744727,69.49924 C62.5191214,66.1651154 69.5454545,56.7390292 69.5454545,45.6227056 C69.5454545,31.7222798 58.5546601,20.4545455 44.9977398,20.4545455 C31.4453399,20.4545455 20.4545455,31.7222798 20.4545455,45.6227056 Z" id="Shape" fill="#730D0D"></path>
                    </g>
                </g>
            </g>
        </g>
    </g>
</svg>