<?xml version="1.0" encoding="UTF-8"?>
<svg width="90px" height="90px" viewBox="0 0 90 90" version="1.1" xmlns="http://www.w3.org/2000/svg" xmlns:xlink="http://www.w3.org/1999/xlink">
    <!-- Generator: Sketch 60.1 (88133) - https://sketch.com -->
    <title>instagram_hover</title>
    <desc>Created with Sketch.</desc>
    <g id="Welcome" stroke="none" stroke-width="1" fill="none" fill-rule="evenodd">
        <g id="Desktop-HD" transform="translate(-1276.000000, -789.000000)">
            <g id="social_media_row" transform="translate(1229.000000, 111.500000)">
                <g id="social_media_icons" transform="translate(47.000000, 451.500000)">
                    <g id="instagram_hover" transform="translate(0.000000, 226.000000)">
                        <rect id="Rectangle" x="0" y="0" width="90" height="90"></rect>
                        <circle id="Oval" stroke="#730D0D" stroke-width="2" cx="45" cy="45" r="44"></circle>
                        <path d="M57.548373,24.5454545 L32.451627,24.5454545 C28.0932502,24.5454545 24.5454545,28.0908449 24.5454545,32.451627 L24.5454545,57.548373 C24.5454545,61.9091551 28.0932502,65.4545455 32.451627,65.4545455 L57.548373,65.4545455 C61.9067498,65.4545455 65.4545455,61.9091551 65.4545455,57.548373 L65.4545455,32.451627 C65.4545455,28.0908449 61.9067498,24.5454545 57.548373,24.5454545 L57.548373,24.5454545 Z M59.8165569,29.2622188 L60.7209442,29.2574083 L60.7209442,36.1918455 L53.8081545,36.2134931 L53.7841016,29.2790558 L59.8165569,29.2622188 L59.8165569,29.2622188 Z M39.1623728,40.800372 C40.4708479,38.986787 42.5971201,37.7985761 45,37.7985761 C47.4028799,37.7985761 49.5291521,38.986787 50.8376272,40.800372 C51.6915035,41.9837723 52.2014239,43.431754 52.2014239,45 C52.2014239,48.9687206 48.9711259,52.1990186 45,52.1990186 C41.0312794,52.1990186 37.8009814,48.9687206 37.8009814,45 C37.8009814,43.431754 38.3109018,41.9837723 39.1623728,40.800372 L39.1623728,40.800372 Z M61.4689879,57.548373 C61.4689879,59.7107244 59.7107244,61.4689879 57.548373,61.4689879 L32.451627,61.4689879 C30.2892756,61.4689879 28.5310121,59.7107244 28.5310121,57.548373 L28.5310121,40.800372 L34.6404366,40.800372 C34.1112738,42.099226 33.8154238,43.515939 33.8154238,45 C33.8154238,51.1671513 38.8328487,56.1869815 45,56.1869815 C51.1695566,56.1869815 56.1869815,51.1671513 56.1869815,45 C56.1869815,43.515939 55.8863209,42.099226 55.3619687,40.800372 L61.4689879,40.800372 L61.4689879,57.548373 L61.4689879,57.548373 Z" id="Shape" fill="#FFFFFF"></path>
                    </g>
                </g>
            </g>
        </g>
    </g>
</svg>