<?xml version="1.0" encoding="UTF-8"?>
<svg width="565px" height="656px" viewBox="0 0 565 656" version="1.1" xmlns="http://www.w3.org/2000/svg" xmlns:xlink="http://www.w3.org/1999/xlink">
    <!-- Generator: Sketch 60.1 (88133) - https://sketch.com -->
    <title>profile_outline</title>
    <desc>Created with Sketch.</desc>
    <g id="Welcome" stroke="none" stroke-width="1" fill="none" fill-rule="evenodd">
        <g id="Desktop-HD" transform="translate(0.000000, -368.000000)" stroke="#FFFFFF" stroke-width="5">
            <g id="profile_outline" transform="translate(1.000000, 371.000000)">
                <polygon id="Path" points="0.885876558 529.572011 10.925073 519.856013 26.0125983 514.87652 44.4028487 507.776508 66.309231 499.189423 87.1045426 489.267698 106.975091 482.252372 127.072596 471.822535 143.860602 460.688118 159.944026 451.328703 176.352641 441.505213 199.512365 432.403242 199.512365 418.934899 199.512365 402.607581 199.512365 392.665532 204.115856 384.119096 215.721123 377.340888 215.721123 358.313805 213.896588 346.251863 211.474616 333.783719 208.748 319.094001 204.115856 302.579454 196.839551 298.716242 189.491656 294.294347 183.055669 288.420079 176.352641 277.564148 172.797966 271.487532 168.954996 262.771268 166.282022 256.424347 163.741634 250.298064 161.813571 243.55642 161.813571 240.273146 161.813571 233.12666 163.741634 228.142034 166.282022 221.203029 168.954996 215.983595 166.282022 206.529505 163.741634 197.52479 161.813571 186.647678 161.813571 175.609642 159.944026 164.570592 158.283342 155.362445 158.283342 146.106728 158.283342 135.490739 159.944026 126.954631 163.741634 118.531878 168.954996 109.149647 172.797966 100.11457 180.352331 93.5611783 183.055669 85.8003432 189.491656 83.7194516 189.491656 74.8483354 189.491656 64.8001389 193.613967 59.5088445 199.512365 54.2246348 208.748 48.9272677 217.857974 42.2423022 228.127821 36.0988138 234.968651 32.7386192 241.270028 27.4139252 243.602935 24.7935807 251.318225 22.9576189 259.908988 21.5173909 265.973532 19.1551336 270.357978 16.9973219 272.971238 16.9973219 277.892102 13.7545316 283.842277 9.22434152 286.701479 6.88738688 288.175107 6.88738688 290.04548 3.57476127 292.733636 1.68718206 295.346896 1.68718206 298.170674 -2.27722767e-16 301.704951 0 308.788686 1.68718206 316.911856 4.97045657 324.011785 3.57476127 328.528818 3.57476127 335.37066 1.68718206 338.807774 1.68718206 345.083849 0 350.310368 0 354.353735 1.68718206 358.773606 1.68718206 361.833204 3.57476127 366.655893 4.97045657 371.321706 9.22434152 377.086666 13.7545316 381.691752 16.9973219 384.769569 16.9973219 387.822083 19.1551336 391.400893 21.5173909 394.602187 26.1153922 399.670818 27.4139252 406.468127 27.4139252 411.599509 30.6870787 413.791732 32.7386192 415.706638 36.0988138 418.629603 42.2423022 419.975705 46.0923565 422.030282 54.2246348 424.529173 64.8001389 426.188016 72.04986 427.523997 80.5363757 427.523997 85.8003432 427.523997 88.9641891 426.188016 96.6055956 424.529173 100.11457 422.030282 105.758078 422.030282 109.149647 419.975705 111.058481 418.629603 113.101925 415.706638 115.411552 418.629603 122.904179 422.030282 130.622506 422.030282 135.490739 424.529173 146.106728 424.529173 151.087305 426.188016 155.362445 426.188016 161.769081 427.523997 164.570592 429.077581 171.372962 430.743509 175.609642 430.743509 183.924099 437.713889 189.736628 437.713889 197.52479 435.959908 201.827256 432.826425 209.013215 430.743509 215.983595 429.077581 223.054173 426.188016 228.142034 426.188016 238.069789 427.523997 243.55642 429.077581 245.532053 430.743509 253.347542 430.743509 262.546475 430.743509 271.487532 430.743509 306.813096 429.077581 312.98796 427.523997 319.094001 426.188016 327.416555 424.529173 336.603449 419.975705 346.251863 415.706638 353.626073 410.199765 358.313805 406.468127 362.684429 401.851908 369.372431 399.670818 372.555507 398.011975 377.340888 394.602187 384.119096 392.703474 387.183487 391.400893 390.620601 387.822083 396.335969 389.681324 399.597989 389.681324 402.607581 391.400893 409.624931 392.703474 416.058894 396.250909 423.068746 399.670818 425.730587 404.809284 429.054346 415.706638 432.403242 427.523997 437.471026 440.076146 445.009197 449.614241 451.328703 472.143738 462.14113 483.540061 468.571044 500.649727 475.985739 515.306046 478.290306 530.836825 483.707102 538.493413 489.267698 546.239066 495.281555 551.941276 499.189423 556.119253 504.706294 559.872145 507.776508 561 511.619403 559.872145 592.257279 559.872145 652.064148 0.885876558 652.064148"></polygon>
            </g>
        </g>
    </g>
</svg>